<svg width="12" height="13" viewBox="0 0 12 13" fill="none" xmlns="http://www.w3.org/2000/svg">
<g id="Icon Frame">
<g id="Pause">
<path d="M7.14286 2.05556C7.14286 1.74873 7.39869 1.5 7.71429 1.5H9.42857C9.74416 1.5 10 1.74873 10 2.05556V10.9444C10 11.2513 9.74416 11.5 9.42857 11.5H7.71429C7.39869 11.5 7.14286 11.2513 7.14286 10.9444V2.05556Z" fill="white"/>
<path d="M2 2.05556C2 1.74873 2.25584 1.5 2.57143 1.5H4.28571C4.60131 1.5 4.85714 1.74873 4.85714 2.05556V10.9444C4.85714 11.2513 4.60131 11.5 4.28571 11.5H2.57143C2.25584 11.5 2 11.2513 2 10.9444V2.05556Z" fill="white"/>
</g>
</g>
</svg>
