<svg width="37" height="44" viewBox="0 0 37 44" fill="none" xmlns="http://www.w3.org/2000/svg">
<g filter="url(#filter0_f_49_607)">
<path d="M15.1749 20.7171C15.4393 20.1994 16.2116 20.3224 16.302 20.8966L16.9997 25.3265C17.0402 25.5833 17.2414 25.7848 17.4981 25.8257L21.9268 26.531C22.5008 26.6225 22.6225 27.395 22.1044 27.6584L18.1068 29.6909C17.8751 29.8087 17.7456 30.0623 17.7861 30.3191L18.4838 34.7491C18.5742 35.3232 17.8771 35.6776 17.4665 35.2663L14.2982 32.0925C14.1145 31.9086 13.8333 31.8638 13.6016 31.9816L9.60407 34.0141C9.08596 34.2775 8.53345 33.724 8.79777 33.2064L10.8372 29.2124C10.9554 28.9809 10.9111 28.6996 10.7274 28.5156L7.55908 25.3418C7.14844 24.9305 7.50408 24.234 8.07808 24.3254L12.5068 25.0308C12.7635 25.0716 13.0174 24.9426 13.1356 24.7111L15.1749 20.7171Z" fill="white"/>
</g>
<path d="M29.8721 8.79659C30.0042 8.53777 30.3904 8.59927 30.4356 8.88634L30.8159 11.3009C30.8361 11.4293 30.9367 11.5301 31.0651 11.5505L33.479 11.935C33.766 11.9807 33.8268 12.3669 33.5678 12.4987L31.3889 13.6065C31.273 13.6654 31.2083 13.7922 31.2285 13.9206L31.6088 16.3352C31.654 16.6222 31.3055 16.7995 31.1002 16.5938L29.3732 14.8639C29.2814 14.7719 29.1408 14.7495 29.025 14.8084L26.8461 15.9163C26.587 16.048 26.3108 15.7712 26.4429 15.5124L27.5545 13.3354C27.6136 13.2197 27.5915 13.079 27.4996 12.9871L25.7727 11.2572C25.5674 11.0515 25.7452 10.7032 26.0322 10.7489L28.4461 11.1334C28.5745 11.1538 28.7014 11.0893 28.7605 10.9736L29.8721 8.79659Z" fill="white"/>
<g filter="url(#filter1_f_49_607)">
<path d="M16.9754 6.15947L17.4011 8.86284L20.1038 9.29328L17.6643 10.5336L18.0901 13.237L16.1566 11.3002L13.7171 12.5405L14.9617 10.1032L13.0282 8.16637L15.7308 8.59681L16.9754 6.15947Z" fill="white"/>
</g>
<defs>
<filter id="filter0_f_49_607" x="6.38159" y="19.3896" width="17.0511" height="17.0549" filterUnits="userSpaceOnUse" color-interpolation-filters="sRGB">
<feFlood flood-opacity="0" result="BackgroundImageFix"/>
<feBlend mode="normal" in="SourceGraphic" in2="BackgroundImageFix" result="shape"/>
<feGaussianBlur stdDeviation="0.5" result="effect1_foregroundBlur_49_607"/>
</filter>
<filter id="filter1_f_49_607" x="12.0282" y="5.15948" width="9.07556" height="9.07751" filterUnits="userSpaceOnUse" color-interpolation-filters="sRGB">
<feFlood flood-opacity="0" result="BackgroundImageFix"/>
<feBlend mode="normal" in="SourceGraphic" in2="BackgroundImageFix" result="shape"/>
<feGaussianBlur stdDeviation="0.5" result="effect1_foregroundBlur_49_607"/>
</filter>
</defs>
</svg>
